<?xml version="1.0" standalone="no"?>
<!DOCTYPE svg PUBLIC "-//W3C//DTD SVG 20010904//EN"
 "http://www.w3.org/TR/2001/REC-SVG-20010904/DTD/svg10.dtd">
<svg version="1.0" xmlns="http://www.w3.org/2000/svg"
 width="260.000000pt" height="260.000000pt" viewBox="0 0 260.000000 260.000000"
 preserveAspectRatio="xMidYMid meet">
<metadata>
Created by potrace 1.14, written by Peter Selinger 2001-2017
</metadata>
<g transform="translate(0.000000,260.000000) scale(0.100000,-0.100000)"
fill="#000000" stroke="none">
<path d="M434 2463 c-126 -75 -245 -144 -264 -155 -80 -46 -150 -90 -151 -96
0 -4 -2 -173 -4 -377 l-4 -370 317 -183 317 -183 0 -365 0 -364 90 -52 c49
-28 110 -62 135 -76 25 -14 110 -62 190 -107 80 -45 167 -94 193 -109 l48 -26
167 94 c92 52 183 103 202 114 19 11 55 32 80 45 25 14 81 45 125 70 l80 46 1
365 c0 201 2 367 5 369 2 2 145 84 316 183 l313 178 -4 366 c-3 201 -5 370 -5
377 -1 7 -67 51 -148 99 -82 48 -224 132 -318 187 -93 55 -174 100 -180 100
-10 0 -118 -59 -217 -118 -9 -5 -56 -32 -104 -60 -48 -27 -104 -59 -123 -70
-20 -11 -69 -40 -109 -63 -50 -30 -79 -41 -93 -37 -18 6 -252 139 -499 284
-52 31 -102 59 -111 63 -10 4 -96 -42 -245 -129z m916 -275 l40 -23 1 -90 c0
-49 2 -103 3 -120 13 -123 19 -161 51 -305 13 -61 128 -466 179 -635 9 -27 16
-55 16 -61 0 -11 -29 -28 -36 -22 -1 2 -25 80 -54 173 -37 122 -75 220 -135
345 -78 164 -126 290 -139 370 -3 19 -8 49 -11 65 -3 17 -5 90 -5 164 0 170 9
185 90 139z m-107 -135 c-4 -220 34 -366 161 -622 42 -84 88 -192 102 -240 14
-47 39 -128 55 -180 16 -51 28 -95 27 -96 -2 -1 -13 -7 -24 -13 -20 -11 -22
-9 -29 36 -9 63 -165 523 -203 600 -17 33 -49 92 -71 130 -59 98 -87 186 -106
324 -17 121 -17 123 2 140 17 15 73 47 83 48 3 0 4 -57 3 -127z m300 20 c37
-23 37 -24 38 -91 1 -37 3 -76 4 -87 1 -11 5 -42 8 -70 9 -77 36 -245 52 -325
17 -88 60 -337 71 -415 3 -27 8 -58 10 -67 2 -15 -42 -58 -60 -58 -6 0 -35 89
-76 235 -151 533 -145 511 -169 685 -5 36 -9 112 -10 169 l-2 103 48 -27 c26
-16 65 -39 86 -52z m-416 25 c1 -133 40 -290 100 -403 26 -49 66 -128 89 -175
47 -95 176 -468 197 -572 l14 -67 -24 -16 c-14 -9 -26 -15 -27 -13 -1 2 -8 39
-15 83 -15 93 -46 182 -101 294 -22 44 -53 125 -69 181 -40 133 -51 155 -116
225 -30 33 -67 84 -82 114 -25 50 -27 63 -28 190 -1 136 -1 136 24 153 31 21
38 22 38 6z m-78 -150 c0 -176 15 -215 123 -335 53 -59 67 -87 98 -199 11 -43
47 -134 79 -203 73 -157 83 -187 97 -301 4 -25 7 -48 8 -52 0 -4 -18 -19 -42
-34 -31 -18 -43 -22 -46 -12 -2 7 -13 63 -24 124 -12 61 -42 172 -67 245 -25
74 -57 179 -72 234 -14 55 -34 117 -45 138 -47 93 -136 154 -211 144 -108 -14
-193 -131 -251 -344 l-25 -88 0 122 c-1 67 3 132 8 145 13 34 72 94 176 177
89 72 144 136 146 173 1 10 2 24 3 31 1 6 -4 32 -11 57 -7 25 -13 48 -13 52 0
5 59 47 67 48 2 0 3 -55 2 -122z m632 45 c43 -26 79 -55 80 -63 1 -8 2 -26 3
-40 10 -95 20 -215 31 -375 4 -55 9 -118 11 -140 2 -22 6 -103 10 -181 l6
-141 -37 -23 c-20 -12 -37 -21 -39 -19 -2 2 -11 56 -20 119 -20 140 -22 155
-41 250 -30 154 -74 438 -81 515 -3 44 -7 95 -9 113 -2 17 -1 32 2 32 3 0 40
-21 84 -47z m-713 -15 c19 -74 -26 -175 -106 -238 -31 -25 -87 -75 -124 -112
-58 -57 -68 -63 -68 -44 0 13 22 56 49 97 65 99 89 149 102 209 10 46 15 53
67 84 32 19 60 35 64 35 4 1 11 -14 16 -31z m843 -61 c14 -10 16 -32 13 -142
-3 -116 5 -204 32 -340 12 -59 15 -109 14 -195 -1 -52 -2 -112 -2 -132 0 -49
-28 -53 -29 -5 -4 132 -18 366 -24 398 -2 9 -7 63 -10 120 -4 57 -9 107 -11
110 -8 14 -15 199 -8 199 5 0 16 -6 25 -13z m-1021 -22 c0 -31 -34 -112 -74
-174 l-41 -66 -3 80 c-2 44 -1 89 2 100 3 11 27 32 53 47 56 32 63 33 63 13z
m1110 -35 l25 -19 1 -365 c0 -362 0 -365 -21 -374 -21 -10 -21 -9 -21 142 1
131 -6 230 -20 301 -18 88 -15 335 4 335 4 0 18 -9 32 -20z m-867 -195 c87
-36 141 -155 192 -425 4 -19 31 -107 60 -195 30 -88 58 -184 63 -213 9 -50 8
-54 -15 -69 -22 -15 -27 -15 -58 0 -19 9 -52 28 -74 42 l-40 25 3 132 c4 150
-10 232 -49 288 -89 129 -264 78 -356 -102 -30 -60 -46 -69 -73 -42 -21 20
-20 35 4 147 74 334 191 476 343 412z m-9 -365 c41 -15 82 -67 102 -128 14
-45 18 -86 17 -190 -1 -74 -4 -136 -7 -139 -3 -3 -27 8 -53 24 -42 26 -48 34
-49 66 -3 61 -43 107 -112 126 -24 7 -39 5 -68 -11 l-38 -20 -43 21 -44 21 31
58 c46 86 87 132 144 158 56 26 81 29 120 14z m-67 -269 c13 -6 30 -25 38 -41
15 -29 20 -70 9 -70 -6 0 -97 52 -104 60 -3 3 -17 11 -32 19 -16 8 -28 18 -28
22 0 10 51 27 75 24 11 -1 30 -7 42 -14z"/>
</g>
</svg>
